<svg xmlns="http://www.w3.org/2000/svg" width="24.436" height="24.436" viewBox="0 0 24.436 24.436">
    <defs>
        <clipPath id="a">
            <path data-name="Rectangle 1816" style="fill:none" d="M0 0h24.436v24.436H0z"/>
        </clipPath>
    </defs>
    <g data-name="Group 3493">
        <g data-name="Group 3492" transform="rotate(90 12.218 12.218)" style="clip-path:url(#a)">
            <path data-name="Path 4624" d="m1.438 2.211.773-.773a4.923 4.923 0 0 1 6.955 0l3.323 3.323a4.925 4.925 0 0 1 .853 5.8l-2.757-2.753a1.624 1.624 0 0 0-.416-.729L6.847 3.756a1.639 1.639 0 0 0-2.319 0l-.773.773a1.639 1.639 0 0 0 0 2.318l3.324 3.323a1.628 1.628 0 0 0 .824.444l2.7 2.7a4.923 4.923 0 0 1-5.845-.829l-3.32-3.319a4.923 4.923 0 0 1 0-6.955m15.85 15.044a1.613 1.613 0 0 0 0-2.28L9.4 7.084a1.612 1.612 0 0 0-2.28 2.28l7.891 7.891a1.612 1.612 0 0 0 2.28 0m-5.341 2.42L15.27 23a4.923 4.923 0 0 0 6.955 0l.775-.775a4.924 4.924 0 0 0 0-6.954l-3.323-3.323a4.925 4.925 0 0 0-5.8-.854l2.756 2.756a1.623 1.623 0 0 1 .73.416l3.323 3.323a1.639 1.639 0 0 1 0 2.318l-.773.773a1.639 1.639 0 0 1-2.319 0l-3.323-3.323a1.627 1.627 0 0 1-.443-.824l-2.7-2.7a4.924 4.924 0 0 0 .829 5.845" style="fill:#0eabb7"/>
        </g>
    </g>
</svg>
