<svg xmlns="http://www.w3.org/2000/svg" width="24.385" height="24.436" viewBox="0 0 24.385 24.436">
    <defs>
        <clipPath id="clip-path">
            <path id="Rectangle_1815" data-name="Rectangle 1815" style="fill:none" d="M0 0h24.385v24.436H0z"/>
        </clipPath>
        <style>
            .cls-2{fill:#0eabb7;fill-rule:evenodd}
        </style>
    </defs>
    <g id="Group_3491" data-name="Group 3491">
        <path id="Path_4621" data-name="Path 4621" class="cls-2" d="m32.379 8.946 4.743 4.426.635-.678-4.7-4.471z" transform="translate(-17.08 -4.338)"/>
        <g id="Group_3490" data-name="Group 3490">
            <g id="Group_3489" data-name="Group 3489" style="clip-path:url(#clip-path)">
                <path id="Path_4622" data-name="Path 4622" class="cls-2" d="M40.847 0a3.318 3.318 0 0 1 3.389 3.207 3.046 3.046 0 0 1-.588 1.987L42.384 6.55l-4.742-4.471L38.905.724A3.636 3.636 0 0 1 40.847 0" transform="translate(-19.856)"/>
                <path id="Rectangle_1814" data-name="Rectangle 1814" transform="rotate(-46.971 12.056 -17.36)" style="fill:#2e393d" d="M0 0h.927v6.486H0z"/>
                <path id="Path_4623" data-name="Path 4623" d="M14.713 10.994 1.932 23.731a.912.912 0 0 0-.182.361L.034 29.105a.858.858 0 0 0 .227.858.724.724 0 0 0 .586.271c.09 0 .18-.045.271-.045l5.013-1.716a.9.9 0 0 0 .361-.181L19.23 15.511z" transform="translate(0 -5.799)" style="fill:#2e393d;fill-rule:evenodd"/>
            </g>
        </g>
    </g>
</svg>
